<svg width="36" height="36" viewBox="0 0 36 36" fill="none" xmlns="http://www.w3.org/2000/svg">
<path d="M5.49519 30.9472C3.776 29.2867 2.40472 27.3005 1.46136 25.1045C0.518 22.9084 0.0214483 20.5464 0.000679622 18.1564C-0.0200891 15.7664 0.435342 13.3961 1.3404 11.184C2.24545 8.97188 3.58201 6.96215 5.27208 5.27208C6.96215 3.58201 8.97188 2.24545 11.184 1.3404C13.3961 0.435342 15.7664 -0.0200891 18.1564 0.000679622C20.5464 0.0214483 22.9084 0.518 25.1045 1.46136C27.3005 2.40472 29.2867 3.776 30.9472 5.49519C34.226 8.89003 36.0403 13.4369 35.9993 18.1564C35.9583 22.876 34.0653 27.3906 30.7279 30.7279C27.3906 34.0653 22.876 35.9583 18.1564 35.9993C13.4369 36.0403 8.89003 34.226 5.49519 30.9472ZM8.03319 28.4092C10.7352 31.1112 14.3999 32.6292 18.2212 32.6292C22.0424 32.6292 25.7072 31.1112 28.4092 28.4092C31.1112 25.7072 32.6292 22.0424 32.6292 18.2212C32.6292 14.3999 31.1112 10.7352 28.4092 8.03319C25.7072 5.33116 22.0424 3.81318 18.2212 3.81318C14.3999 3.81318 10.7352 5.33116 8.03319 8.03319C5.33116 10.7352 3.81318 14.3999 3.81318 18.2212C3.81318 22.0424 5.33116 25.7072 8.03319 28.4092ZM25.8532 13.1272L20.7592 18.2212L25.8532 23.3152L23.3152 25.8532L18.2212 20.7592L13.1272 25.8532L10.5892 23.3152L15.6832 18.2212L10.5892 13.1272L13.1272 10.5892L18.2212 15.6832L23.3152 10.5892L25.8532 13.1272Z" fill="black"/>
</svg>
