<svg width="230" height="198" viewBox="0 0 230 198" fill="none" xmlns="http://www.w3.org/2000/svg">
<path d="M173.377 0C163.574 0.152464 153.986 2.88872 145.58 7.93245C137.174 12.9762 130.247 20.1488 125.5 28.7259C120.753 20.1488 113.826 12.9762 105.42 7.93245C97.0138 2.88872 87.4255 0.152464 77.6235 0C61.9978 0.678895 47.2759 7.51447 36.6741 19.0134C26.0723 30.5122 20.4524 45.7397 21.0421 61.369C21.0421 120.344 116.412 188.459 120.469 191.349L125.5 194.91L130.531 191.349C134.588 188.477 229.958 120.344 229.958 61.369C230.548 45.7397 224.928 30.5122 214.326 19.0134C203.724 7.51447 189.002 0.678895 173.377 0Z" fill="#4545F5"/>
<path d="M152.377 3C142.574 3.15246 132.986 5.88872 124.58 10.9325C116.174 15.9762 109.247 23.1488 104.5 31.7259C99.7527 23.1488 92.8263 15.9762 84.42 10.9325C76.0138 5.88872 66.4255 3.15246 56.6235 3C40.9978 3.6789 26.2759 10.5145 15.6741 22.0134C5.0723 33.5122 -0.547615 48.7397 0.0421409 64.369C0.0421409 123.344 95.4122 191.459 99.4686 194.349L104.5 197.91L109.531 194.349C113.588 191.477 208.958 123.344 208.958 64.369C209.548 48.7397 203.928 33.5122 193.326 22.0134C182.724 10.5145 168.002 3.6789 152.377 3Z" fill="#1A1AF4"/>
</svg>
