<svg width="36" height="38" viewBox="0 0 36 38" fill="none" xmlns="http://www.w3.org/2000/svg">
<path d="M31.7626 20.8604C31.8397 20.2667 31.8783 19.6531 31.8783 19C31.8783 18.3667 31.8397 17.7333 31.7433 17.1396L35.6562 14.0125C35.8248 13.8698 35.9401 13.6715 35.9822 13.4513C36.0244 13.2312 35.9909 13.0029 35.8875 12.8052L32.1867 6.23438C32.0777 6.0356 31.9037 5.88283 31.6956 5.80314C31.4874 5.72344 31.2585 5.72196 31.0494 5.79896L26.4426 7.69896C25.4788 6.94688 24.4572 6.31355 23.32 5.83855L22.6261 0.811464C22.592 0.584909 22.4798 0.378436 22.31 0.229542C22.1403 0.0806472 21.9241 -0.000794645 21.7009 5.84527e-06H14.2991C13.8365 5.84527e-06 13.4703 0.336464 13.3932 0.811464L12.6993 5.83855C11.562 6.31355 10.5212 6.96667 9.57666 7.69896L4.96985 5.79896C4.54579 5.64063 4.06391 5.79896 3.8326 6.23438L0.151009 12.8052C-0.0802953 13.2208 -0.00319406 13.7354 0.382313 14.0125L4.29521 17.1396C4.19884 17.7333 4.12174 18.3865 4.12174 19C4.12174 19.6135 4.16029 20.2667 4.25666 20.8604L0.343763 23.9875C0.175149 24.1302 0.0599399 24.3285 0.0177632 24.5487C-0.0244135 24.7688 0.00905225 24.9971 0.112458 25.1948L3.81333 31.7656C4.04463 32.201 4.52652 32.3396 4.95058 32.201L9.55739 30.301C10.5212 31.0531 11.5428 31.6865 12.68 32.1615L13.3739 37.1885C13.4703 37.6635 13.8365 38 14.2991 38H21.7009C22.1635 38 22.549 37.6635 22.6068 37.1885L23.3007 32.1615C24.438 31.6865 25.4788 31.0531 26.4233 30.301L31.0301 32.201C31.4542 32.3594 31.9361 32.201 32.1674 31.7656L35.8683 25.1948C36.0996 24.7594 36.0032 24.2646 35.637 23.9875L31.7626 20.8604ZM18 26.125C14.1835 26.125 11.0609 22.9188 11.0609 19C11.0609 15.0813 14.1835 11.875 18 11.875C21.8165 11.875 24.9391 15.0813 24.9391 19C24.9391 22.9188 21.8165 26.125 18 26.125Z" fill="white"/>
</svg>
